<svg width="15" height="15" viewBox="0 0 15 15" fill="none" xmlns="http://www.w3.org/2000/svg">
<circle cx="7.5" cy="7.5" r="7.5" fill="#F0F2F5"/>
<path d="M7.5 9.5625C7.96875 9.5625 8.36725 9.39838 8.6955 9.07013C9.02375 8.74188 9.18775 8.3435 9.1875 7.875C9.1875 7.40625 9.02337 7.00775 8.69512 6.6795C8.36687 6.35125 7.9685 6.18725 7.5 6.1875C7.03125 6.1875 6.63275 6.35163 6.3045 6.67988C5.97625 7.00813 5.81225 7.4065 5.8125 7.875C5.8125 8.34375 5.97662 8.74225 6.30487 9.0705C6.63312 9.39875 7.0315 9.56275 7.5 9.5625ZM7.0875 7.4625L7.33125 6.9375C7.3625 6.86875 7.41875 6.83438 7.5 6.83438C7.58125 6.83438 7.6375 6.86875 7.66875 6.9375L7.9125 7.4625L8.4375 7.70625C8.50625 7.7375 8.54062 7.79375 8.54062 7.875C8.54062 7.95625 8.50625 8.0125 8.4375 8.04375L7.9125 8.2875L7.66875 8.8125C7.6375 8.88125 7.58125 8.91563 7.5 8.91563C7.41875 8.91563 7.3625 8.88125 7.33125 8.8125L7.0875 8.2875L6.5625 8.04375C6.49375 8.0125 6.45938 7.95625 6.45938 7.875C6.45938 7.79375 6.49375 7.7375 6.5625 7.70625L7.0875 7.4625ZM4.5 10.875C4.29375 10.875 4.11713 10.8015 3.97013 10.6545C3.82313 10.5075 3.74975 10.331 3.75 10.125V5.625C3.75 5.41875 3.8235 5.24213 3.9705 5.09513C4.1175 4.94813 4.294 4.87475 4.5 4.875H5.68125L6.15 4.36875C6.21875 4.2875 6.30162 4.2265 6.39862 4.18575C6.49562 4.145 6.597 4.12475 6.70275 4.125H8.2965C8.40275 4.125 8.50437 4.14538 8.60137 4.18613C8.69837 4.22688 8.78112 4.28775 8.84962 4.36875L9.31875 4.875H10.5C10.7062 4.875 10.8829 4.9485 11.0299 5.0955C11.1769 5.2425 11.2502 5.419 11.25 5.625V10.125C11.25 10.3313 11.1765 10.5079 11.0295 10.6549C10.8825 10.8019 10.706 10.8753 10.5 10.875H4.5ZM10.5 10.125V5.625H4.5V10.125H10.5Z" fill="#8C939D"/>
</svg>
