<svg width="18" height="18" viewBox="0 0 18 18" fill="none" xmlns="http://www.w3.org/2000/svg">
<path fill-rule="evenodd" clip-rule="evenodd" d="M2.25 2.25V12.75H10.6451V12H3V3H13.125V3.795H13.875V2.25H2.25ZM13.875 6C13.875 6.19891 13.796 6.38968 13.6553 6.53033C13.5147 6.67098 13.3239 6.75 13.125 6.75C12.9261 6.75 12.7353 6.67098 12.5947 6.53033C12.454 6.38968 12.375 6.19891 12.375 6C12.375 5.80109 12.454 5.61032 12.5947 5.46967C12.7353 5.32902 12.9261 5.25 13.125 5.25C13.3239 5.25 13.5147 5.32902 13.6553 5.46967C13.796 5.61032 13.875 5.80109 13.875 6ZM14.625 6C14.625 6.39782 14.467 6.77936 14.1857 7.06066C13.9044 7.34196 13.5228 7.5 13.125 7.5C12.7272 7.5 12.3456 7.34196 12.0643 7.06066C11.783 6.77936 11.625 6.39782 11.625 6C11.625 5.60218 11.783 5.22064 12.0643 4.93934C12.3456 4.65804 12.7272 4.5 13.125 4.5C13.5228 4.5 13.9044 4.65804 14.1857 4.93934C14.467 5.22064 14.625 5.60218 14.625 6Z" fill="#8C939D"/>
<path fill-rule="evenodd" clip-rule="evenodd" d="M11.2849 8.18625C11.494 7.9866 11.772 7.87514 12.0611 7.875H13.5919C14.1409 7.875 14.652 8.06175 15.0458 8.43375C15.4245 8.7915 15.6218 9.25013 15.7024 9.68475C15.8291 10.368 15.6979 11.1146 15.375 11.7765V14.8125C15.375 15.0478 15.2866 15.2744 15.1272 15.4475C14.9679 15.6206 14.7493 15.7274 14.5148 15.7468C14.2804 15.7662 14.0472 15.6968 13.8616 15.5523C13.6759 15.4077 13.5514 15.1987 13.5128 14.9666L13.3125 13.7651L13.1123 14.9666C13.0736 15.1987 12.9491 15.4077 12.7635 15.5523C12.5778 15.6968 12.3446 15.7662 12.1102 15.7468C11.8757 15.7274 11.6571 15.6206 11.4978 15.4475C11.3384 15.2744 11.25 15.0478 11.25 14.8125V11.2849C11.079 11.3836 10.885 11.4356 10.6875 11.4356H8.77426C8.47589 11.4356 8.18974 11.3171 7.97877 11.1061C7.76779 10.8951 7.64926 10.609 7.64926 10.3106C7.64926 10.0123 7.76779 9.72611 7.97877 9.51513C8.18974 9.30415 8.47589 9.18563 8.77426 9.18563H10.2368L11.2849 8.18625ZM12 12.5531V14.8125C12.0001 14.8595 12.0179 14.9047 12.0498 14.9392C12.0816 14.9737 12.1253 14.995 12.1721 14.9989C12.2189 15.0027 12.2654 14.9889 12.3025 14.9601C12.3396 14.9312 12.3646 14.8896 12.3724 14.8433L12.7635 12.4973C12.7781 12.4097 12.8232 12.3301 12.8909 12.2727C12.9586 12.2153 13.0445 12.1838 13.1333 12.1838H13.4918C13.5805 12.1838 13.6664 12.2153 13.7341 12.2727C13.8018 12.3301 13.847 12.4097 13.8615 12.4973L14.2526 14.8433C14.2605 14.8896 14.2854 14.9312 14.3225 14.9601C14.3596 14.9889 14.4061 15.0027 14.4529 14.9989C14.4998 14.995 14.5434 14.9737 14.5753 14.9392C14.6071 14.9047 14.6249 14.8595 14.625 14.8125V11.6873C14.625 11.6272 14.6394 11.5681 14.667 11.5147C14.9565 10.956 15.0619 10.3436 14.9651 9.82162C14.9063 9.50437 14.7686 9.20363 14.5309 8.979C14.2883 8.74988 13.9665 8.625 13.5919 8.625H12.0615C11.9651 8.625 11.8721 8.66212 11.8024 8.7285L10.6459 9.83175C10.5762 9.89834 10.4835 9.93554 10.3871 9.93563H8.77426C8.67481 9.93563 8.57942 9.97513 8.5091 10.0455C8.43877 10.1158 8.39926 10.2112 8.39926 10.3106C8.39926 10.4101 8.43877 10.5055 8.5091 10.5758C8.57942 10.6461 8.67481 10.6856 8.77426 10.6856H10.6875C10.7839 10.6855 10.8766 10.6483 10.9463 10.5818L11.3663 10.1812C11.4194 10.1306 11.4862 10.0967 11.5585 10.0836C11.6307 10.0706 11.7052 10.0791 11.7727 10.108C11.8402 10.1369 11.8977 10.185 11.9381 10.2463C11.9785 10.3075 12 10.3793 12 10.4528V12.5535V12.5531Z" fill="#8C939D"/>
</svg>
