<svg width="16" height="16" viewBox="0 0 16 16" fill="none" xmlns="http://www.w3.org/2000/svg">
<path d="M9.81008 4.25V2.75H6.81008V4.25L9.81008 4.25ZM3.06008 5V12.5H13.5601V5H3.06008ZM13.3101 4.25C14.0038 4.25 14.4207 4.80625 14.4207 5.5V12.375C14.4207 13.0688 14.0038 13.3633 13.3101 13.3633H3.31008C2.61633 13.3633 2.15796 13.0688 2.15796 12.375V5.5C2.15796 4.80625 2.61633 4.25 3.31008 4.25H5.81008V3C5.81008 2.30625 6.36633 1.75 7.06008 1.75H9.56008C10.2538 1.75 10.8101 2.30625 10.8101 3V4.25H13.3101Z" fill="#8C939D"/>
</svg>
