<svg width="17" height="16" viewBox="0 0 17 16" fill="none" xmlns="http://www.w3.org/2000/svg">
<path d="M10.1 4V2.4H6.90001V4L10.1 4ZM2.90001 4.8V12.8H14.1V4.8H2.90001ZM13.8333 4C14.5733 4 15.018 4.59333 15.018 5.33333V12.6667C15.018 13.4067 14.5733 13.7208 13.8333 13.7208H3.16668C2.42668 13.7208 1.93774 13.4067 1.93774 12.6667V5.33333C1.93774 4.59333 2.42668 4 3.16668 4H5.83334V2.66666C5.83334 1.92666 6.42668 1.33333 7.16668 1.33333H9.83334C10.5733 1.33333 11.1667 1.92666 11.1667 2.66666V4H13.8333Z" fill="#8C939D"/>
</svg>
