<svg width="15" height="15" viewBox="0 0 15 15" fill="none" xmlns="http://www.w3.org/2000/svg">
<path d="M5.08438 8.5C4.9073 8.5 4.75876 8.44 4.63876 8.32C4.51876 8.2 4.45897 8.05167 4.45938 7.875C4.45938 7.69792 4.51938 7.54938 4.63938 7.42938C4.75938 7.30938 4.90772 7.24959 5.08438 7.25C5.26147 7.25 5.41001 7.31 5.53001 7.43C5.65001 7.55 5.7098 7.69834 5.70938 7.875C5.70938 8.05209 5.64938 8.20063 5.52938 8.32063C5.40938 8.44063 5.26105 8.50042 5.08438 8.5ZM7.58438 8.5C7.4073 8.5 7.25876 8.44 7.13876 8.32C7.01876 8.2 6.95897 8.05167 6.95938 7.875C6.95938 7.69792 7.01938 7.54938 7.13938 7.42938C7.25938 7.30938 7.40772 7.24959 7.58438 7.25C7.76147 7.25 7.91001 7.31 8.03001 7.43C8.15001 7.55 8.2098 7.69834 8.20938 7.875C8.20938 8.05209 8.14938 8.20063 8.02938 8.32063C7.90938 8.44063 7.76105 8.50042 7.58438 8.5ZM10.0844 8.5C9.9073 8.5 9.75876 8.44 9.63876 8.32C9.51876 8.2 9.45897 8.05167 9.45938 7.875C9.45938 7.69792 9.51938 7.54938 9.63938 7.42938C9.75938 7.30938 9.90772 7.24959 10.0844 7.25C10.2615 7.25 10.41 7.31 10.53 7.43C10.65 7.55 10.7098 7.69834 10.7094 7.875C10.7094 8.05209 10.6494 8.20063 10.5294 8.32063C10.4094 8.44063 10.2611 8.50042 10.0844 8.5ZM3.20938 13.5C2.86563 13.5 2.57126 13.3775 2.32626 13.1325C2.08126 12.8875 1.95897 12.5933 1.95938 12.25V3.5C1.95938 3.15625 2.08188 2.86188 2.32688 2.61688C2.57188 2.37188 2.86605 2.24959 3.20938 2.25H3.83438V1.625C3.83438 1.44792 3.89438 1.29938 4.01438 1.17938C4.13438 1.05938 4.28272 0.999585 4.45938 1C4.63647 1 4.78501 1.06 4.90501 1.18C5.02501 1.3 5.0848 1.44834 5.08438 1.625V2.25H10.0844V1.625C10.0844 1.44792 10.1444 1.29938 10.2644 1.17938C10.3844 1.05938 10.5327 0.999585 10.7094 1C10.8865 1 11.035 1.06 11.155 1.18C11.275 1.3 11.3348 1.44834 11.3344 1.625V2.25H11.9594C12.3031 2.25 12.5975 2.3725 12.8425 2.6175C12.9594 3 12.9598 3.53207 12.9594 3.8754V7.8754L13 12.4083C13 12.752 12.8661 13.1325 12.8661 13.1325C12.6211 13.3775 12.3027 13.5004 11.9594 13.5H3.20938ZM2.95938 12.4083L12.1338 12.4083V5.8017H2.95938V12.4083ZM2.95938 4.75L12.1338 4.75V3.08796L2.95819 3.08796L2.95938 4.75Z" fill="#8C939D"/>
</svg>
