<svg width="14" height="14" viewBox="0 0 14 14" fill="none" xmlns="http://www.w3.org/2000/svg">
<path d="M11.6375 12.25C10.3833 12.25 9.16086 11.9704 7.97008 11.4112C6.77931 10.8519 5.72444 10.1131 4.8055 9.1945C3.88656 8.27594 3.14767 7.22108 2.58883 6.02992C2.03 4.83875 1.75039 3.61628 1.75 2.3625C1.75 2.1875 1.80833 2.04167 1.925 1.925C2.04167 1.80833 2.1875 1.75 2.3625 1.75H4.725C4.86111 1.75 4.98264 1.79375 5.08958 1.88125C5.19653 1.96875 5.25972 2.08056 5.27917 2.21667L5.65833 4.25833C5.67778 4.39444 5.67525 4.5185 5.65075 4.6305C5.62625 4.7425 5.57044 4.84206 5.48333 4.92917L4.06875 6.35833C4.47708 7.05833 4.99003 7.71458 5.60758 8.32708C6.22514 8.93958 6.90317 9.46944 7.64167 9.91667L9.0125 8.54583C9.1 8.45833 9.21433 8.39261 9.3555 8.34867C9.49667 8.30472 9.63511 8.29267 9.77083 8.3125L11.7833 8.72083C11.9194 8.75 12.0312 8.81572 12.1187 8.918C12.2062 9.02028 12.25 9.13928 12.25 9.275V11.6375C12.25 11.8125 12.1917 11.9583 12.075 12.075C11.9583 12.1917 11.8125 12.25 11.6375 12.25ZM3.51458 5.25L4.47708 4.2875L4.22917 2.91667H2.93125C2.97986 3.31528 3.04792 3.70903 3.13542 4.09792C3.22292 4.48681 3.34931 4.87083 3.51458 5.25ZM11.0833 11.0542V9.77083L9.7125 9.49375L8.73542 10.4708C9.11458 10.6361 9.50094 10.7674 9.8945 10.8646C10.2881 10.9618 10.6843 11.025 11.0833 11.0542Z" fill="#8C939D"/>
</svg>
