<svg width="14" height="15" viewBox="0 0 14 15" fill="none" xmlns="http://www.w3.org/2000/svg">
<path d="M9.54335 8.66667C9.59002 8.28167 9.62502 7.89667 9.62502 7.5C9.62502 7.10333 9.59002 6.71833 9.54335 6.33333H11.515C11.6084 6.70667 11.6667 7.0975 11.6667 7.5C11.6667 7.9025 11.6084 8.29334 11.515 8.66667M8.51085 11.91C8.86085 11.2625 9.12919 10.5625 9.31585 9.83334H11.0367C10.4715 10.8065 9.57492 11.5437 8.51085 11.91ZM8.36502 8.66667H5.63502C5.57669 8.28167 5.54169 7.89667 5.54169 7.5C5.54169 7.10333 5.57669 6.7125 5.63502 6.33333H8.36502C8.41752 6.7125 8.45835 7.10333 8.45835 7.5C8.45835 7.89667 8.41752 8.28167 8.36502 8.66667ZM7.00002 12.1433C6.51585 11.4433 6.12502 10.6675 5.88585 9.83334H8.11419C7.87502 10.6675 7.48419 11.4433 7.00002 12.1433ZM4.66669 5.16667H2.96335C3.52269 4.19088 4.41865 3.45254 5.48335 3.09C5.13335 3.7375 4.87085 4.4375 4.66669 5.16667ZM2.96335 9.83334H4.66669C4.87085 10.5625 5.13335 11.2625 5.48335 11.91C4.42088 11.5435 3.52618 10.8062 2.96335 9.83334ZM2.48502 8.66667C2.39169 8.29334 2.33335 7.9025 2.33335 7.5C2.33335 7.0975 2.39169 6.70667 2.48502 6.33333H4.45669C4.41002 6.71833 4.37502 7.10333 4.37502 7.5C4.37502 7.89667 4.41002 8.28167 4.45669 8.66667M7.00002 2.85083C7.48419 3.55083 7.87502 4.3325 8.11419 5.16667H5.88585C6.12502 4.3325 6.51585 3.55083 7.00002 2.85083ZM11.0367 5.16667H9.31585C9.13328 4.44419 8.86294 3.74677 8.51085 3.09C9.58419 3.4575 10.4767 4.19833 11.0367 5.16667ZM7.00002 1.66667C3.77419 1.66667 1.16669 4.29167 1.16669 7.5C1.16669 9.0471 1.78127 10.5308 2.87523 11.6248C3.41691 12.1665 4.05997 12.5961 4.7677 12.8893C5.47543 13.1825 6.23398 13.3333 7.00002 13.3333C8.54712 13.3333 10.0308 12.7188 11.1248 11.6248C12.2188 10.5308 12.8334 9.0471 12.8334 7.5C12.8334 6.73396 12.6825 5.97541 12.3893 5.26768C12.0962 4.55995 11.6665 3.91689 11.1248 3.37521C10.5831 2.83354 9.94007 2.40386 9.23234 2.1107C8.52461 1.81755 7.76607 1.66667 7.00002 1.66667Z" fill="#8C939D"/>
</svg>
