<svg width="12" height="13" viewBox="0 0 12 13" fill="none" xmlns="http://www.w3.org/2000/svg">
<path d="M10.125 1.625H1.875C1.67609 1.625 1.48532 1.70402 1.34467 1.84467C1.20402 1.98532 1.125 2.17609 1.125 2.375V10.625C1.125 10.8239 1.20402 11.0147 1.34467 11.1553C1.48532 11.296 1.67609 11.375 1.875 11.375H10.125C10.3239 11.375 10.5147 11.296 10.6553 11.1553C10.796 11.0147 10.875 10.8239 10.875 10.625V2.375C10.875 2.17609 10.796 1.98532 10.6553 1.84467C10.5147 1.70402 10.3239 1.625 10.125 1.625ZM10.125 10.625H1.875V2.375H10.125V10.625ZM4.5 5.75V8.75C4.5 8.84946 4.46049 8.94484 4.39016 9.01517C4.31984 9.08549 4.22446 9.125 4.125 9.125C4.02554 9.125 3.93016 9.08549 3.85984 9.01517C3.78951 8.94484 3.75 8.84946 3.75 8.75V5.75C3.75 5.65054 3.78951 5.55516 3.85984 5.48484C3.93016 5.41451 4.02554 5.375 4.125 5.375C4.22446 5.375 4.31984 5.41451 4.39016 5.48484C4.46049 5.55516 4.5 5.65054 4.5 5.75ZM8.625 7.0625V8.75C8.625 8.84946 8.58549 8.94484 8.51517 9.01517C8.44484 9.08549 8.34946 9.125 8.25 9.125C8.15054 9.125 8.05516 9.08549 7.98483 9.01517C7.91451 8.94484 7.875 8.84946 7.875 8.75V7.0625C7.875 6.81386 7.77623 6.5754 7.60041 6.39959C7.4246 6.22377 7.18614 6.125 6.9375 6.125C6.68886 6.125 6.4504 6.22377 6.27459 6.39959C6.09877 6.5754 6 6.81386 6 7.0625V8.75C6 8.84946 5.96049 8.94484 5.89016 9.01517C5.81984 9.08549 5.72446 9.125 5.625 9.125C5.52554 9.125 5.43016 9.08549 5.35984 9.01517C5.28951 8.94484 5.25 8.84946 5.25 8.75V5.75C5.25047 5.65815 5.28463 5.56966 5.34601 5.50132C5.40738 5.43298 5.49171 5.38955 5.58299 5.37926C5.67426 5.36897 5.76614 5.39254 5.8412 5.4455C5.91625 5.49846 5.96925 5.57712 5.99016 5.66656C6.24384 5.49447 6.5396 5.39473 6.84569 5.37806C7.15178 5.36138 7.45663 5.42839 7.72751 5.5719C7.99839 5.71541 8.22506 5.93 8.38318 6.19261C8.5413 6.45523 8.6249 6.75596 8.625 7.0625ZM4.6875 4.4375C4.6875 4.54875 4.65451 4.65751 4.5927 4.75001C4.53089 4.84251 4.44304 4.91461 4.34026 4.95718C4.23748 4.99976 4.12438 5.0109 4.01526 4.98919C3.90615 4.96749 3.80592 4.91391 3.72725 4.83525C3.64859 4.75658 3.59501 4.65635 3.57331 4.54724C3.5516 4.43812 3.56274 4.32502 3.60532 4.22224C3.64789 4.11946 3.71999 4.03161 3.81249 3.9698C3.90499 3.90799 4.01375 3.875 4.125 3.875C4.27418 3.875 4.41726 3.93426 4.52275 4.03975C4.62824 4.14524 4.6875 4.28832 4.6875 4.4375Z" fill="#8C939D"/>
</svg>
