<?xml version="1.0" standalone="no"?>
<!DOCTYPE svg PUBLIC "-//W3C//DTD SVG 20010904//EN"
 "http://www.w3.org/TR/2001/REC-SVG-20010904/DTD/svg10.dtd">
<svg version="1.0" xmlns="http://www.w3.org/2000/svg"
 width="300.000000pt" height="300.000000pt" viewBox="0 0 300.000000 300.000000"
 preserveAspectRatio="xMidYMid meet">

<g transform="translate(0.000000,300.000000) scale(0.100000,-0.100000)"
fill="#000000" stroke="none">
<path d="M455 2825 l-25 -24 0 -1301 0 -1301 25 -24 24 -25 1021 0 1021 0 25
25 24 24 -2 953 c-3 902 -4 955 -21 990 -22 43 -572 620 -630 660 -22 15 -56
32 -76 38 -22 6 -286 10 -699 10 l-663 0 -24 -25z m1249 -151 c14 -13 16 -58
16 -336 0 -285 2 -323 17 -340 15 -17 38 -18 305 -18 302 0 336 -4 352 -45 3
-9 6 -373 6 -809 0 -603 -3 -795 -12 -804 -17 -17 -1759 -17 -1776 0 -17 17
-17 2339 0 2356 9 9 144 12 544 12 471 0 534 -2 548 -16z m416 -304 c105 -110
190 -206 187 -213 -2 -9 -55 -13 -188 -17 -101 -3 -194 -4 -206 -2 l-23 3 0
215 c0 203 1 214 19 214 11 0 94 -79 211 -200z"/>
<path d="M1120 2404 c-142 -62 -163 -258 -41 -385 68 -70 135 -81 207 -34 58
37 110 124 120 198 22 156 -142 283 -286 221z"/>
<path d="M1022 1881 c8 -21 164 -271 169 -271 6 0 169 263 169 274 0 3 -77 6
-171 6 -94 0 -169 -4 -167 -9z"/>
<path d="M1303 1705 c-59 -96 -110 -175 -113 -175 -3 1 -52 77 -108 170 -57
94 -108 170 -113 170 -18 0 -64 -28 -86 -52 -52 -55 -63 -101 -63 -271 l0
-157 383 2 382 3 -1 160 c-1 176 -7 198 -68 263 -30 33 -75 62 -95 62 -5 0
-58 -79 -118 -175z"/>
<path d="M822 1134 c-14 -10 -22 -26 -22 -44 0 -60 -3 -60 510 -60 513 0 510
0 510 60 0 60 3 60 -510 60 -405 0 -468 -2 -488 -16z"/>
<path d="M822 884 c-14 -10 -22 -26 -22 -44 0 -60 -3 -60 510 -60 512 0 510 0
510 59 0 62 11 61 -506 61 -409 0 -472 -2 -492 -16z"/>
<path d="M822 634 c-14 -10 -22 -26 -22 -44 0 -60 -3 -60 510 -60 513 0 510 0
510 60 0 60 3 60 -510 60 -405 0 -468 -2 -488 -16z"/>
</g>
</svg>
